<svg width="112" height="20" viewBox="0 0 112 20" fill="none" xmlns="http://www.w3.org/2000/svg">
<path d="M0.604004 19.5387H4.2675V12.673C4.2675 10.502 5.4344 9.36228 7.03548 9.36228C8.55516 9.36228 9.47782 10.3663 9.47782 12.3202V19.5387H13.1413V12.076C13.1413 8.08684 11.106 6.13297 8.17524 6.13297C6.6827 6.13297 5.2173 6.72999 4.32178 8.16825H4.21323V6.54003H0.604004V19.5387Z" fill="#0D0C22"/>
<path d="M23.108 6.10583C18.8746 6.10583 16.4323 9.22659 16.4323 12.9444C16.4323 17.1777 19.4716 20 23.3522 20C26.7715 20 28.6982 18.1004 29.5395 15.9023H25.9845C25.4146 16.7436 24.5734 17.2592 23.3794 17.2592C21.5341 17.2592 20.0144 15.7123 20.0144 13.9213H29.6752C29.7294 13.5685 29.7294 13.2429 29.7294 12.9444C29.7294 9.30801 27.3957 6.10583 23.108 6.10583ZM23.0809 8.65672C24.7905 8.65672 25.9574 9.90502 26.1202 11.4247H20.0415C20.1772 9.98643 21.2898 8.65672 23.0809 8.65672Z" fill="#2720BF"/>
<path d="M38.1076 6.10583C33.8742 6.10583 31.4319 9.22659 31.4319 12.9444C31.4319 17.1777 34.4712 20 38.3518 20C41.7711 20 43.6978 18.1004 44.5391 15.9023H40.9841C40.4142 16.7436 39.573 17.2592 38.3789 17.2592C36.5336 17.2592 35.014 15.7123 35.014 13.9213H44.6747C44.729 13.5685 44.729 13.2429 44.729 12.9444C44.729 9.30801 42.3952 6.10583 38.1076 6.10583ZM38.0804 8.65672C39.7901 8.65672 40.957 9.90502 41.1198 11.4247H35.0411C35.1768 9.98643 36.2894 8.65672 38.0804 8.65672Z" fill="#2720BF"/>
<path d="M61.1456 0H57.5635V8.03256H57.455C56.6137 6.91995 55.474 6.10583 53.5201 6.10583C50.2365 6.10583 47.36 8.87381 47.36 13.0258C47.36 17.9376 50.7521 20 53.2487 20C55.284 20 56.668 19.0502 57.5093 18.1275H57.6178V19.5387H61.1456V0ZM51.0778 13.0529C51.0778 11.1805 52.1904 9.22659 54.4428 9.22659C56.2609 9.22659 57.6721 10.8005 57.6721 13.0801C57.6721 15.2782 56.1524 16.825 54.4156 16.825C52.1633 16.825 51.0778 14.9525 51.0778 13.0529Z" fill="#0D0C22"/>
<path d="M65.4816 19.5387H69.1451V0H65.4816V19.5387Z" fill="#0D0C22"/>
<path d="M73.4329 19.5387H77.0964V6.54003H73.4329V19.5387ZM73.3515 3.82632H77.205V0.325645H73.3515V3.82632Z" fill="#0D0C22"/>
<path d="M81.3843 19.5387H85.0478V12.673C85.0478 10.502 86.2146 9.36228 87.8157 9.36228C89.3354 9.36228 90.2581 10.3663 90.2581 12.3202V19.5387H93.9216V12.076C93.9216 8.08684 91.8863 6.13297 88.9555 6.13297C87.463 6.13297 85.9975 6.72999 85.102 8.16825H84.9935V6.54003H81.3843V19.5387Z" fill="#0D0C22"/>
<path d="M106.683 19.5387H111.107L105.109 11.886L110.32 6.54003H105.869L101.744 10.9362V0H98.0809V19.5387H101.744V15.0068L102.586 14.1927L106.683 19.5387Z" fill="#0D0C22"/>
<rect x="21.4001" y="11.4214" width="18.5713" height="2.50713" fill="#2720BF"/>
</svg>
